<svg width="37" height="47" viewBox="0 0 37 47" xmlns="http://www.w3.org/2000/svg">
  <title>BD-Logo</title>
  <g fill="#000" fill-rule="evenodd">
    <path d="M30.79 33.458c0 4.108-3.35 7.452-7.47 7.452H9.48V27.926H7.174V43.17H23.32c5.377.095 9.736-4.357 9.736-9.712 0-5.24-4.187-9.412-9.736-9.345H0v2.256h23.32c4.26 0 7.47 3.047 7.47 7.088"/>
    <path d="M23.687 20.284H0v2.26h23.687c6.035 0 10.943 4.896 10.943 10.915 0 6.114-5.01 11.28-10.943 11.28H5.56V27.926H3.27V47h20.417c7.16 0 13.21-6.2 13.21-13.54 0-7.266-5.927-13.176-13.21-13.176M7.188 18.7H9.48V6.518h12.632c3.72 0 6.747 3.02 6.747 6.73 0 2.143-1.052 4.18-2.81 5.45l-.23.158.267.04c.408.077.813.137 1.213.253.422.107.836.233 1.243.374l.005-.005c1.66-1.694 2.577-3.92 2.577-6.27 0-4.957-4.043-8.99-9.013-8.99H7.172"/>
    <path d="M3.27 18.7h2.29V2.69H22.48c5.54 0 10.22 4.835 10.22 10.56 0 2.54-.953 4.98-2.683 6.875.696.33 1.364.713 1.997 1.144 1.903-2.254 2.952-5.09 2.952-8.018C34.964 6.3 29.246.427 22.48.427H3.27"/>
  </g>
</svg>
