<?xml version="1.0" standalone="no"?>
<!DOCTYPE svg PUBLIC "-//W3C//DTD SVG 20010904//EN"
 "http://www.w3.org/TR/2001/REC-SVG-20010904/DTD/svg10.dtd">
<svg version="1.0" xmlns="http://www.w3.org/2000/svg"
 width="4082.000000pt" height="2532.000000pt" viewBox="0 0 4082.000000 2532.000000"
 preserveAspectRatio="xMidYMid meet">
<metadata>
Created by potrace 1.15, written by Peter Selinger 2001-2017
</metadata>
<g transform="translate(0.000000,2532.000000) scale(0.100000,-0.100000)"
fill="#000000" stroke="none">
<path d="M20960 12850 l0 -10930 2125 0 2125 0 2 7760 3 7760 964 -1678 c1807
-3143 6977 -12134 7468 -12987 l489 -850 2287 -3 2287 -2 0 10930 0 10930
-2130 0 -2130 0 -2 -7625 -3 -7626 -749 1313 c-721 1264 -5712 10012 -7220
12655 l-731 1283 -2392 0 -2393 0 0 -10930z"/>
<path d="M1560 21415 l0 -1945 7880 0 7880 0 0 1945 0 1945 -7880 0 -7880 0 0
-1945z"/>
<path d="M2712 12878 l3 -1943 6725 0 6725 0 3 1943 2 1942 -6730 0 -6730 0 2
-1942z"/>
<path d="M1380 3860 l0 -1940 8060 0 8060 0 0 1940 0 1940 -8060 0 -8060 0 0
-1940z"/>
</g>
</svg>
