<?xml version="1.0" standalone="no"?>
<!DOCTYPE svg PUBLIC "-//W3C//DTD SVG 20010904//EN"
 "http://www.w3.org/TR/2001/REC-SVG-20010904/DTD/svg10.dtd">
<svg version="1.0" xmlns="http://www.w3.org/2000/svg"
 width="1528.000000pt" height="1528.000000pt" viewBox="0 0 1528.000000 1528.000000"
 preserveAspectRatio="xMidYMid meet">
<metadata>
Created by potrace 1.15, written by Peter Selinger 2001-2017
</metadata>
<g transform="translate(0.000000,1528.000000) scale(0.100000,-0.100000)"
fill="#000000" stroke="none">
<path d="M0 7640 l0 -7640 7640 0 7640 0 0 7640 0 7640 -7640 0 -7640 0 0
-7640z m14660 5 l0 -7005 -6995 0 -6995 0 0 7005 0 7005 6995 0 6995 0 0
-7005z"/>
<path d="M7790 7850 l0 -2360 470 0 470 0 0 1653 c0 1403 2 1648 14 1627 7
-14 31 -56 53 -95 22 -38 67 -117 100 -175 113 -197 135 -235 142 -245 5 -5
22 -35 38 -65 17 -30 47 -84 68 -120 21 -36 64 -110 95 -165 31 -55 80 -139
108 -187 29 -48 52 -89 52 -93 0 -3 17 -32 37 -63 20 -31 48 -79 63 -107 59
-110 94 -171 110 -195 10 -14 34 -56 55 -95 21 -38 46 -82 57 -97 10 -14 18
-28 18 -30 0 -3 39 -72 86 -154 98 -168 154 -265 185 -321 12 -21 36 -63 54
-93 18 -30 58 -100 89 -155 32 -55 66 -113 75 -130 10 -16 36 -61 57 -99 21
-38 46 -81 54 -95 28 -48 102 -175 177 -306 41 -71 79 -137 84 -145 5 -8 12
-23 15 -32 6 -17 39 -18 515 -18 l509 0 0 2360 0 2360 -470 0 -470 0 0 -1622
0 -1623 -57 95 c-31 52 -68 118 -83 145 -33 60 -122 216 -195 340 -46 79 -131
228 -204 358 -13 23 -50 89 -84 147 -33 58 -79 139 -102 180 -23 41 -67 119
-98 174 -32 54 -57 100 -57 102 0 2 -25 44 -55 94 -31 50 -69 117 -85 148 -38
72 -65 118 -77 134 -6 7 -26 42 -45 78 -20 36 -80 142 -133 235 -141 245 -205
357 -205 360 0 2 -21 39 -46 82 -51 85 -62 104 -119 208 -21 39 -46 81 -56 95
-9 14 -32 54 -51 90 -20 36 -50 91 -67 123 l-33 57 -529 0 -529 0 0 -2360z"/>
<path d="M3607 10123 c-4 -3 -7 -199 -7 -435 l0 -428 1713 2 1712 3 3 410 c1
226 0 420 -3 433 l-5 22 -1704 0 c-936 0 -1706 -3 -1709 -7z"/>
<path d="M3857 8283 c-4 -3 -7 -199 -7 -435 l0 -428 1465 0 1465 0 0 435 0
435 -1458 0 c-802 0 -1462 -3 -1465 -7z"/>
<path d="M3570 5915 l0 -425 1750 0 1750 0 0 425 0 425 -1750 0 -1750 0 0
-425z"/>
</g>
</svg>
