<?xml version="1.0" standalone="no"?><!-- Generator: Gravit.io --><svg xmlns="http://www.w3.org/2000/svg" xmlns:xlink="http://www.w3.org/1999/xlink" style="isolation:isolate" viewBox="0 0 330 330" width="330" height="330"><defs><clipPath id="_clipPath_b1PkdWTtHxCsY4z6YvEPvTaUq1ejY4TY"><rect width="330" height="330"/></clipPath></defs><g clip-path="url(#_clipPath_b1PkdWTtHxCsY4z6YvEPvTaUq1ejY4TY)"><path d=" M 38 32.8 C 38 33.3 41.7 41.7 46.1 51.6 C 64.8 92.8 71 108 70.1 109.8 C 69.2 111.3 65 121.1 57.3 139.5 C 55.9 142.8 54.2 146.8 53.5 148.5 C 52.7 150.1 50.7 154.9 49 159 C 47.3 163.1 45.2 167.8 44.5 169.5 C 43.8 171.1 39.7 180.6 35.5 190.5 C 31.3 200.4 27.2 209.8 26.5 211.5 C 25.8 213.1 24 217.2 22.7 220.5 Q 18.5 230.3 2.191 269 L 18.8 269 L 31.6 269 L 34.4 262.3 C 36 258.5 38.3 253 39.6 250 C 43 241.9 48 229.9 49.5 226.5 C 50.7 223.9 52.5 219.6 57.5 207.5 C 58.2 205.8 59.9 201.8 61.3 198.5 C 62.7 195.2 67.3 184.4 71.5 174.5 C 75.7 164.6 80.5 153.2 82.2 149.3 L 85.4 142 L 88.5 149.8 C 90.3 154 99.9 177.7 110 202.5 C 120 227.2 129.3 249.9 130.6 252.8 C 131.9 255.7 133 258.4 133 258.8 C 133 259.3 133.8 261.3 134.8 263.4 L 136.7 267.2 L 151.6 267.1 C 159.7 267 166.6 266.7 166.8 266.6 C 167 266.4 164.8 260.7 162 253.9 C 159.1 247.1 156 239.5 155 237 C 154 234.5 151.8 229.1 150.1 225 C 148.3 220.9 145.5 214.1 143.9 210 C 142.2 205.9 140.2 201.1 139.5 199.5 C 138.8 197.8 137 193.6 135.5 190 C 134 186.4 132.1 181.9 131.3 180 C 130.4 178.1 127.8 171.8 125.5 166 C 121.1 155.4 114 138.2 111.6 132.6 C 110 128.7 106.9 121.5 103.4 113 C 102 109.4 100.2 105.1 99.5 103.5 C 98.8 101.8 96.1 95.3 93.5 89 C 85.5 69.8 83 63.7 80.6 58 C 79.3 55 77.1 49.8 75.7 46.5 C 74.4 43.2 72.4 38.6 71.4 36.2 L 69.6 32 L 53.8 32 C 45.1 32 38 32.4 38 32.8 Z " fill="rgb(211,0,0)"/><path d=" M 226.9 52.9 C 222.3 54.4 219.1 57.1 217 61.4 C 214.2 67.2 214.5 70.8 218 76.4 C 224.4 86.4 237 86.6 244.4 76.6 C 247.4 72.7 247.3 63.3 244.4 59.3 C 240.5 54.1 232.5 51.2 226.9 52.9 Z " fill="rgb(0,0,0)"/><path d=" M 285.3 53.8 C 276.2 58.7 274.2 71.1 281.4 78.5 C 285 82.2 289.9 83.6 295.8 82.6 C 309.7 80.4 312.8 61.6 300.6 54.1 C 296.5 51.5 289.7 51.4 285.3 53.8 Z " fill="rgb(0,0,0)"/><path d=" M 320.5 119.2 C 318.3 119.7 312.8 119.9 308.2 119.6 L 300 119.1 L 300 168.8 C 300.1 217.1 300.1 218.7 297.9 225.5 C 296.8 229.3 294.9 234.1 293.9 236.1 C 286.8 250.2 267.2 258.1 250.5 253.6 C 237.8 250.2 230.6 243.3 226.3 230.5 L 224.3 222.5 L 223.5 188.5 C 223.5 169.8 223.9 146.8 224.3 137.5 L 225.1 120.5 L 212.7 120.5 L 200.3 120.5 L 200.7 176.7 L 202.125 232.25 L 203.5 240.1 C 210.4 259.8 226.6 269.9 251.5 270 C 272.1 270.1 289.4 261 298.8 245.1 L 301.5 240.5 L 301.8 245.5 C 302 248.2 302 254.1 301.8 258.5 L 301.5 266.6 L 313.8 266.5 L 326 266.5 L 325.3 254.5 C 324.8 247.9 324.5 214.5 324.5 180.2 C 324.5 146 324.5 118 324.5 118.1 C 324.5 118.2 322.7 118.6 320.5 119.2 Z " fill="rgb(0,0,0)"/></g></svg>