<?xml version="1.0" standalone="no"?>
<!DOCTYPE svg PUBLIC "-//W3C//DTD SVG 20010904//EN"
 "http://www.w3.org/TR/2001/REC-SVG-20010904/DTD/svg10.dtd">
<svg version="1.0" xmlns="http://www.w3.org/2000/svg"
 width="420.000000pt" height="420.000000pt" viewBox="0 0 420.000000 420.000000"
 preserveAspectRatio="xMidYMid meet">
<metadata>
Created by potrace 1.15, written by Peter Selinger 2001-2017
</metadata>
<g transform="translate(0.000000,420.000000) scale(0.100000,-0.100000)"
fill="#000000" stroke="none">
<path d="M800 3444 l0 -626 62 56 c34 30 63 54 65 52 1 -1 -101 -234 -228
-516 -150 -333 -228 -519 -223 -527 13 -18 773 -663 782 -663 7 0 306 758 318
805 4 17 -27 42 -185 150 -104 71 -189 130 -188 132 2 1 129 -39 284 -89 l281
-91 -234 -469 -235 -469 131 -477 c72 -262 133 -478 134 -480 2 -2 125 -25
272 -52 l269 -48 284 49 c157 26 287 53 291 59 3 5 64 219 134 476 l127 465
-240 472 c-132 259 -239 472 -238 473 6 6 562 183 565 180 1 -2 -80 -62 -182
-132 -102 -71 -185 -131 -186 -134 0 -21 318 -815 327 -815 12 0 786 651 791
666 3 7 -206 482 -427 971 l-30 68 63 -50 c35 -28 66 -50 70 -50 3 0 6 279 6
620 0 341 -2 620 -5 620 -2 0 -227 -151 -499 -335 l-495 -335 -164 0 -164 0
-6 -28 c-3 -15 -9 -68 -13 -117 -6 -75 -9 -84 -15 -55 -4 19 -11 72 -14 118
l-7 82 -150 0 -150 0 -484 335 c-266 184 -486 335 -489 335 -3 0 -5 -282 -5
-626z m1339 -2671 l1 -83 130 0 c72 0 130 -3 130 -6 0 -5 -236 -343 -281 -401
-17 -23 -18 -22 -163 186 -80 116 -146 212 -146 215 0 4 59 6 130 6 l130 0 0
48 c0 26 7 193 15 372 8 179 15 343 16 365 2 52 37 -594 38 -702z"/>
</g>
</svg>
